<?xml version="1.0" encoding="utf-8"?>
<!-- Created with Inkscape (http://www.inkscape.org/) -->
<svg width="512" height="512" version="1.2" viewBox="0 0 512 512" baseProfile="tiny-ps" xmlns="http://www.w3.org/2000/svg">
  <title>relishah</title>
  <g stroke-width=".14147">
    <path d="m-124.07 256v-292.33h760.14v584.66h-760.14z" fill="#949698" />
    <path d="m-124.07 256v-292.33h760.14v584.66h-760.14zm521.39 151.85c4.132-18.998 7.5457-34.746 7.5859-34.995l0.0731-0.45334-211.78-0.0826-18.001-31.289c-9.9007-17.209-18.001-31.425-18.001-31.592 0-0.28863 0.24939-0.30854 5.0073-0.39974 5.1463-0.0986 6.7032-0.21873 10.166-0.78424 16.376-2.674 31.606-11.89 44.367-26.846 1.687-1.9771 5.645-7.2784 7.2782-9.748 11.041-16.696 18.201-37.48 20.448-59.356 0.66425-6.4657 0.85847-11.67 0.85847-23.001 0-8.5859-0.12517-13.897-0.42545-18.054-1.7317-23.972-8.9135-46.123-20.822-64.22-1.6149-2.4542-5.6935-7.9165-7.3976-9.9073-14.276-16.677-31.238-26.004-49.891-27.435-1.3451-0.10316-24.31-0.16379-62.607-0.1653l-60.482-0.0024v108.33h110.83v-12.334c0-10.703 0.024-12.377 0.18181-12.654 0.17799-0.31331 0.18757-0.31127 0.45521 0.0965 2.4883 3.7914 37.429 59.987 37.454 60.239 0.0292 0.2895-3.2992 4.036-18.622 20.961-10.262 11.335-18.766 20.713-18.899 20.841-0.55207 0.53169-0.56984 0.25609-0.56984-8.8378v-8.4599l-110.77 0.0828-0.03063 35.655-0.03061 35.655h21.806l3.7678 5.1525c2.0723 2.8339 21.975 30.305 44.229 61.046 22.254 30.742 42.313 58.435 44.575 61.541l4.1142 5.6472 227.62-0.0826zm-123.11-87.571 10.136-5.5035 133.22-0.0834 0.20255-0.94761c0.1114-0.52118 3.7157-17.116 8.0095-36.878 4.2938-19.762 7.7789-35.992 7.7446-36.067-0.0343-0.0754-29.582-0.13703-65.662-0.13703-72.236 0-66.201-0.0859-70.041 0.99646-9.3796 2.6435-16.314 8.871-20.589 18.489l-0.68283 1.5365-6.1446 30.667c-3.3795 16.867-6.2778 31.324-6.4406 32.126-0.26355 1.2988-0.27362 1.4505-0.0918 1.3816 0.11234-0.0426 4.7655-2.554 10.34-5.581zm27.482-134.6 10.791-8.1615h67.407c37.074 0 67.436-0.0633 67.471-0.14061 0.0619-0.13596 20.606-94.613 20.773-95.531l0.0829-0.45454-140.78 0.08886-1.4567 0.44481c-4.1549 1.2687-7.4251 3.1508-10.863 6.2517-4.5572 4.1109-8.1031 9.4495-9.3264 14.041-0.22307 0.83733-3.17 18.613-7.6054 45.877-3.9827 24.48-7.2867 44.788-7.3424 45.128-0.0557 0.34006-0.0661 0.61828-0.0231 0.61826 0.043-3e-5 4.9341-3.6727 10.869-8.1615z" fill="#7d7e80" />
    <path d="m-124.07 256v-292.33h760.14v584.66h-760.14zm513.97 186.27c0.11949-0.37291 15.171-69.596 15.171-69.773 0-0.0519-47.538-0.0954-105.64-0.0967-58.102-2e-3 -105.76-0.0477-105.92-0.1032-0.18608-0.0677-6.1941-10.386-18.239-31.324-9.8788-17.173-17.961-31.323-17.961-31.444 0-0.1799 0.8642-0.24181 4.5825-0.32826 2.5204-0.0586 5.3472-0.18281 6.2819-0.27602 18.093-1.8042 34.556-11.057 48.455-27.233 1.7618-2.0505 5.8031-7.4627 7.5507-10.112 11.52-17.465 18.742-39.271 20.642-62.324 0.42648-5.1757 0.49557-7.9572 0.49557-19.95 0-14.354-0.15727-18.072-1.0889-25.742-4.7056-38.742-24.343-71.684-51.447-86.303-7.0153-3.7838-14.599-6.2681-22.348-7.3203-4.2028-0.57075-7.625-0.59858-67.567-0.54953l-59.238 0.04847v108.49l111.01 0.0828v-12.521c0-6.8867 0.0466-12.56 0.10351-12.608 0.0569-0.0478 0.18712 3e-3 0.28933 0.11393 0.10221 0.11045 7.0635 11.219 15.47 24.685s16.826 26.955 18.711 29.974c2.3733 3.8015 3.3985 5.5598 3.3334 5.717-0.1595 0.38565-37.584 41.645-37.719 41.584-0.0856-0.0387-0.13718-2.8569-0.15837-8.6586l-0.0314-8.6012h-111.07v35.679c0 32.382 0.01773 35.688 0.19202 35.779 0.10561 0.055 5.0477 0.10008 10.982 0.10008h10.79l47.601 65.745c26.181 36.16 47.918 66.172 48.304 66.694l0.70305 0.94805h227.64zm-115.75-121.8 10.386-5.6059h66.51c36.581 0 66.535-0.0556 66.566-0.12366 0.0308-0.068 3.6416-16.632 8.0239-36.809 4.3824-20.177 7.9967-36.815 8.0318-36.974 0.0608-0.27456-3.143-0.28854-66.092-0.28854h-66.156l-1.7399 0.40034c-8.9416 2.0574-15.689 6.9416-20.288 14.686-1.0474 1.7638-2.3561 4.4033-2.7561 5.5587-0.24244 0.70028-12.988 63.996-12.988 64.5 0 0.1441 0.0262 0.26202 0.0582 0.26202s4.7317-2.5226 10.444-5.6059zm27.618-134.73 10.74-8.1396 134.97-0.1648 10.413-47.897c5.7271-26.344 10.415-47.99 10.418-48.103 4e-3 -0.16465-14.008-0.2061-69.666-0.2061-76.965 0-70.758-0.08813-74.076 1.0518-2.1709 0.74586-3.6632 1.511-6.0074 3.08-2.193 1.4678-4.6188 3.5905-6.3531 5.5594-1.5536 1.7636-3.6529 4.7615-4.5941 6.5603-0.89824 1.7167-1.9913 4.6729-2.2516 6.0895-0.32607 1.7745-14.538 89.181-14.609 89.845-0.0548 0.51662-0.0338 0.62758 0.10517 0.55515 0.0955-0.0498 5.0066-3.7533 10.913-8.2301z" fill="#706f71" />
    <path d="m-124.07 256v-292.17h760.14v584.33h-760.14zm521.63 151.52c4.1878-19.27 7.5731-35.092 7.523-35.16-0.0501-0.0681-47.72-0.14238-105.93-0.1651l-105.84-0.0413-15.273-26.546c-8.4001-14.6-16.503-28.689-18.007-31.308-1.504-2.6196-2.6901-4.8195-2.6358-4.8887 0.0543-0.0692 2.4749-0.16445 5.3791-0.21165 8.5815-0.13946 14.167-1.1506 21.547-3.9003 24.299-9.054 44.555-33.087 54.479-64.636 3.7942-12.062 5.9349-24.493 6.5163-37.84 0.15832-3.634 0.15832-23.406 0-27.04-0.88544-20.324-5.5099-39.153-13.748-55.976-4.7495-9.6994-10.885-18.775-17.568-25.985-11.638-12.557-25.287-20.573-39.816-23.385-5.558-1.0756 0.45211-0.98417-68.274-1.0386-50.085-0.0397-62.284-0.0086-62.362 0.15909-0.05358 0.11465-0.09825 24.511-0.09927 54.215-0.0015 41.788 0.0311 54.051 0.14381 54.204 0.21236 0.28844 110.81 0.28844 111.02 0 0.1107-0.15037 0.14566-3.161 0.14566-12.543 0-10.487 0.0255-12.337 0.16966-12.292 0.2265 0.0712 37.522 59.799 37.522 60.09 0 0.22781-37.374 41.611-37.58 41.611-0.0628 0-0.12249-3.6582-0.14057-8.6149l-0.0314-8.6149-55.529-0.0414c-44.343-0.0331-55.548 1.5e-4 -55.625 0.16488-0.1113 0.2381-0.13754 70.862-0.02646 71.256 0.06643 0.23513 1.1453 0.2608 10.963 0.2608h10.889l3.8894 5.3174c2.1392 2.9245 22.097 30.47 44.35 61.211 22.253 30.742 42.259 58.361 44.457 61.376l3.9958 5.4823 227.88-0.0826zm-123.37-86.954 10.244-5.543h66.551c53.099 0 66.574-0.0417 66.665-0.20609 0.14423-0.25966 15.964-73.055 16.035-73.783l0.0518-0.53586h-132.05l-1.8632 0.41531c-10.517 2.3444-18.087 8.6943-22.731 19.068l-0.68895 1.539-6.4427 32.116c-3.5435 17.664-6.4427 32.233-6.4427 32.377 0 0.16959 0.0742 0.23195 0.21244 0.17849 0.11683-0.0452 4.8221-2.5765 10.456-5.6251zm27.519-134.64 10.908-8.244h134.81l0.11989-0.37098c0.28207-0.87282 20.872-95.956 20.809-96.095-0.10272-0.22574-138.59-0.20457-140.11 0.02142-2.233 0.33038-4.4868 1.0706-6.8102 2.2368-2.9661 1.4887-6.8507 4.5777-9.3602 7.443-3.0163 3.444-5.4483 7.6353-6.4188 11.062-0.23626 0.83422-2.8424 16.537-7.712 46.468-4.0453 24.864-7.3552 45.324-7.3552 45.465 0 0.14161 0.0473 0.25749 0.10502 0.25749 0.0578 0 5.0136-3.7098 11.013-8.2439z" fill="#4f4e4f" />
    <path d="m-124.07 256v-292.17h760.14v584.33h-760.14zm514.05 186.6c0.18791-0.39437 15.302-70.115 15.244-70.32-0.0467-0.16526-21.228-0.20655-105.95-0.20655h-105.89l-17.884-31.086c-9.8365-17.097-17.901-31.185-17.921-31.306-0.0296-0.1795 0.90749-0.23695 5.0984-0.31251 7.3944-0.13332 11.609-0.76164 17.95-2.676 18.156-5.4812 34.822-19.672 46.664-39.73 9.5986-16.259 15.735-35.898 17.592-56.306 0.53313-5.8578 0.58377-7.3405 0.64477-18.879 0.086-16.268-0.19385-22.087-1.4985-31.162-5.3972-37.541-24.535-68.985-50.724-83.341-8.2845-4.5414-17.106-7.2064-26.222-7.9216-1.634-0.12821-19.983-0.16627-62.941-0.13058l-60.634 0.05039-0.03053 54.451-0.03053 54.451h55.644c50.628 0 55.651-0.0235 55.718-0.26081 0.0405-0.14344 0.0737-5.7452 0.0737-12.448 0-6.7032 0.041-12.183 0.091-12.178 0.15093 0.016 37.358 59.706 37.358 59.932 0 0.1152-8.4123 9.5001-18.694 20.855l-18.694 20.646-0.0314-8.4936c-0.0254-6.8734-0.0626-8.5286-0.19469-8.6776-0.11975-0.13499-14.958-0.17299-55.686-0.14262l-55.523 0.0414v71.887l21.904 0.0842 47.481 65.58c26.115 36.069 47.851 66.081 48.302 66.693l0.82142 1.1129h113.93c91.012 0 113.95-0.0415 114.03-0.2061zm-115.95-121.8 10.383-5.6059h133.15l0.17099-0.37097c0.23998-0.52063 16.128-73.758 16.078-74.112-0.0391-0.27548-3.2164-0.2914-66.015-0.33078l-65.974-0.0414-1.8635 0.4142c-10.366 2.3041-17.763 8.2936-22.507 18.225-0.36629 0.7668-0.78389 1.7113-0.92798 2.099-0.23372 0.62875-12.929 63.476-13.088 64.793-0.0407 0.3366-0.0145 0.53586 0.0704 0.53586 0.0744 0 4.8075-2.5226 10.518-5.6059zm27.667-134.71 10.904-8.2439h67.402c56.102 0 67.425-0.0369 67.537-0.22038 0.074-0.1212 4.8388-21.87 10.588-48.33 8.3278-38.326 10.42-48.139 10.289-48.251-0.2428-0.20898-138.27-0.18777-139.84 0.0215-5.3402 0.71349-10.527 3.5736-15.378 8.4791-1.689 1.708-4.7015 5.8137-5.7531 7.8408-0.84458 1.628-1.7622 3.9653-2.0883 5.3191-0.19459 0.80789-14.727 89.903-14.845 91.011-0.0497 0.46732-0.0235 0.6183 0.10738 0.6183 0.0953 0 5.0802-3.7098 11.078-8.244z" fill="#373535" />
    <path d="m-123.83 256v-291.84h759.66v583.67h-759.66zm513.89 186.6c0.2556-0.55295 15.272-69.825 15.228-70.247l-0.038-0.36262-211.85-0.0826-17.834-31c-9.8087-17.05-17.849-31.062-17.868-31.138-0.0189-0.0758 2.1114-0.18223 4.7342-0.23647 5.8985-0.12203 9.1252-0.48 13.716-1.5216 8.2277-1.867 16.025-5.3387 23.525-10.474 24.295-16.636 41.272-48.541 45.089-84.738 0.70328-6.6686 0.9153-12.111 0.9153-23.495 0-11.397-0.213-16.855-0.91684-23.495-1.2839-12.113-3.9397-23.49-8.063-34.542-6.6215-17.748-16.42-32.646-28.712-43.656-12.425-11.129-26.385-17.341-41.391-18.418-2.7791-0.19959-122.89-0.2301-123.12-0.031274-0.12123 0.10455-0.14575 11.136-0.12139 54.614l0.03053 54.483h111.44l0.0311-12.325c0.0188-7.45 0.0757-12.325 0.14391-12.325 0.13348 0 37.201 59.302 37.24 59.579 0.0284 0.1986-36.895 41.04-37.187 41.133-0.14103 0.0448-0.16771-1.2968-0.16771-8.4324 0-7.5858-0.0204-8.4963-0.19201-8.5858-0.10561-0.055-25.14-0.10008-55.633-0.10008-42.959 0-55.474 0.0445-55.587 0.19786-0.11241 0.15268-0.14567 8.3939-0.14567 36.091 0 32.578 0.01774 35.902 0.19201 35.993 0.10561 0.055 5.0732 0.10008 11.039 0.10008h10.847l47.077 65.004c25.892 35.752 47.623 65.764 48.29 66.694l1.2133 1.6903h227.9l0.17148-0.37097zm-115.81-121.78 10.415-5.6273h133.15l0.36395-1.6076c1.2537-5.5376 15.788-72.681 15.788-72.935 0-0.30634-1.3048-0.31248-66.393-0.31248h-66.393l-1.7372 0.40862c-4.2031 0.98862-7.6333 2.4683-10.93 4.7147-2.9902 2.0378-5.0298 4.0356-7.3845 7.2332-1.7792 2.4162-3.1048 4.6933-4.2096 7.2314l-0.70014 1.6085-6.4741 32.279c-3.5608 17.754-6.4414 32.395-6.4015 32.536 0.0418 0.1479 0.1623 0.2233 0.28362 0.17743 0.11602-0.0439 4.8977-2.612 10.626-5.707zm27.488-134.61 10.833-8.192 67.403-2e-3c37.072-2e-3 67.476-0.0655 67.565-0.14254 0.21008-0.18086 21.177-96.656 21.045-96.835-0.0548-0.0744-31.807-0.11629-70.56-0.09308-68.092 0.04078-70.499 0.05249-71.613 0.34844-4.6676 1.2395-9.2075 4.0425-13.353 8.2442-1.4717 1.4917-4.7067 5.8862-5.6159 7.6288-0.80987 1.5523-1.7745 3.9969-2.1385 5.4199-0.25333 0.99011-14.946 91.096-14.946 91.66 0 0.22105 0.0711 0.2803 0.27313 0.22765 0.15022-0.0391 5.148-3.7576 11.106-8.2632z" fill="#252324" />
    <path d="m-123.71 256v-291.67h759.41v583.34h-759.41zm513.77 186.88c0.10491-0.14251 0.19075-0.29164 0.19075-0.33141 0-0.0398 3.3919-15.671 7.5376-34.736 4.1457-19.065 7.5659-34.932 7.6005-35.258 0.055-0.51982 0.0269-0.60729-0.22389-0.69848-0.15771-0.0573-47.865-0.10597-106.02-0.10808l-105.73-4e-3 -35.61-61.909 2.1458-0.036c3.4801-0.0584 8.4675-0.35747 10.475-0.62801 13.68-1.8439 26.404-7.9915 37.86-18.293 20.284-18.24 33.728-47.539 36.771-80.135 0.52967-5.6744 0.55626-6.6989 0.55626-21.434s-0.0266-15.76-0.55626-21.434c-3.1974-34.255-17.807-64.658-39.745-82.713-11.901-9.794-25.163-15.233-39.33-16.129-3.6164-0.22872-122.24-0.22659-122.55 0.0022-0.23142 0.16822-0.2348 0.95635-0.2348 54.624 0 42.133 0.03296 54.498 0.14567 54.652 0.22806 0.30976 111.33 0.286 111.52-0.0238 0.0964-0.1577 0.14445-3.7324 0.16659-12.383l0.0311-12.161 37.116 59.424-0.34947 0.45407c-0.46037 0.59818-36.68 40.567-36.762 40.567-0.0346 0-0.0771-3.8025-0.0944-8.45l-0.0315-8.45-55.771-0.0414c-44.537-0.0331-55.791 1.5e-4 -55.868 0.16488-0.05304 0.11345-0.09727 16.36-0.09829 36.103-0.0018 35.322 0.0019 35.899 0.23295 36.067 0.15682 0.11401 3.84 0.17068 11.092 0.17068h10.857l46.243 63.849c25.434 35.117 47.168 65.131 48.298 66.697l2.0553 2.8481 113.95-4e-3c103.42-4e-3 113.96-0.0278 114.14-0.26301zm-116.01-121.83 10.535-5.6883h66.606c63.312 0 66.611-0.0142 66.714-0.28854 0.26825-0.71869 16.19-74.414 16.125-74.641-0.065-0.23024-6.6109-0.25545-66.345-0.25545h-66.273l-1.8001 0.41335c-6.6729 1.5323-12.016 4.5637-16.43 9.3224-2.2216 2.3949-4.7894 6.4043-6.3443 9.906l-0.68607 1.5451-6.5118 32.438c-3.5815 17.841-6.4802 32.55-6.4414 32.687 0.0387 0.13706 0.126 0.2492 0.19391 0.2492 0.0679 0 4.8641-2.5598 10.658-5.6883zm27.767-134.76 10.925-8.2691 134.93-4e-3 0.10383-0.37098c0.40088-1.4324 20.897-96.182 20.868-96.466l-0.0377-0.35814-69.738-0.04797c-49.299-0.03391-70.076 0.0042-70.89 0.12985-3.6066 0.55676-7.7306 2.4523-11.203 5.1495-5.6786 4.4102-10.072 10.673-11.541 16.45-0.40295 1.5851-15.046 91.634-14.954 91.96 0.0428 0.15147 0.17261 0.21611 0.34074 0.16964 0.14939-0.0413 5.1879-3.7962 11.197-8.3442z" fill="#201e1e" />
    <path d="m-123.53 547.46c-0.0316-0.11337-0.0436-131.35-0.0266-291.63l0.031-291.42h759.05v583.18l-379.5 0.0413c-303.54 0.033-379.51-2e-5 -379.56-0.16488zm521.41-139.82c4.2326-19.476 7.6646-35.521 7.6267-35.655-0.0607-0.21465-12.67-0.24362-106.03-0.24362h-105.96l-35.617-61.912 4.47-0.10387c4.4472-0.10333 6.5578-0.26533 9.5684-0.73439 14.718-2.2931 28.55-9.783 40.423-21.888 5.5027-5.6104 11.095-13.012 15.391-20.37 8.9522-15.332 14.806-33.464 17.014-52.698 0.77352-6.7383 1.035-12.987 1.035-24.732 0-14.011-0.37683-20.732-1.6499-29.431-4.7691-32.585-20.117-60.937-41.745-77.115-8.9626-6.7043-19.232-11.242-29.376-12.981-5.2-0.89152-0.50481-0.83382-67.857-0.83382h-61.909v109.48l111.74 0.0828 0.0311-12.313 0.0311-12.313 18.451 29.539c10.148 16.246 18.462 29.633 18.476 29.748 0.0136 0.11537-8.2894 9.3814-18.451 20.591l-18.476 20.382-0.0607-8.5102-0.0607-8.5102-55.597-0.045c-30.578-0.0247-55.72-5e-3 -55.87 0.0444l-0.27341 0.0894 0.03063 36.229 0.03062 36.229 22.025 0.0842 47.541 65.662c26.148 36.114 47.884 66.126 48.303 66.693l0.76228 1.0306 228.29-0.0826zm-123.67-86.599 10.524-5.6883h133.19l0.30328-1.3602c2.1685-9.726 15.77-72.607 15.817-73.124l0.0638-0.70074h-133.02l-1.7209 0.41002c-10.514 2.505-17.96 8.8149-22.543 19.103l-0.7044 1.5814-6.4772 32.28c-3.5625 17.754-6.4785 32.484-6.48 32.733-2e-3 0.35729 0.0534 0.45342 0.2622 0.45342 0.14574 0 5.0006-2.5598 10.789-5.6883zm27.509-134.59 10.946-8.2747h135.01l0.11876-0.37098c0.31422-0.98154 21.008-96.633 20.95-96.838-0.0573-0.20296-9.612-0.23494-70.188-0.23494-77.628 0-70.899-0.09623-74.27 1.0621-6.8259 2.3454-13.813 8.8165-17.423 16.137-0.7756 1.5727-1.623 3.9754-1.8719 5.3073-0.52591 2.8143-14.764 90.69-14.764 91.122 0 0.43682 0.0378 0.4971 0.27322 0.43596 0.15027-0.039 5.199-3.7945 11.219-8.3456z" fill="#1f1d1d" />
  </g>
</svg>